<?xml version="1.0" encoding="iso-8859-1"?>
<!-- Generator: Adobe Illustrator 19.0.0, SVG Export Plug-In . SVG Version: 6.00 Build 0)  -->
<svg version="1.1" id="Capa_1" xmlns="http://www.w3.org/2000/svg" xmlns:xlink="http://www.w3.org/1999/xlink" x="0px" y="0px"
	 viewBox="0 0 512 512" style="enable-background:new 0 0 512 512;" xml:space="preserve">
<g>
	<g>
		<rect x="90" y="361" width="31" height="60"/>
	</g>
</g>
<g>
	<g>
		<rect x="211" y="421" width="90" height="91"/>
	</g>
</g>
<g>
	<g>
		<path d="M256,361c-19.53,0-36.024,12.578-42.237,30h84.474C292.024,373.578,275.53,361,256,361z"/>
	</g>
</g>
<g>
	<g>
		<polygon points="35.728,211 5.728,271 121,271 121,211 		"/>
	</g>
</g>
<g>
	<g>
		<polygon points="476.272,211 391,211 391,271 506.272,271 		"/>
	</g>
</g>
<g>
	<g>
		<path d="M241,241v-57.237c-17.422,6.213-30,22.707-30,42.237c0,24.814,20.186,45,45,45c19.53,0,36.024-12.578,42.237-30H241z"/>
	</g>
</g>
<g>
	<g>
		<path d="M361,301V141.728l-90-45V60h45c24.853,0,45-20.147,45-45V0c-41.197,0-117.303,0-120,0c0,3.059,0,92.744,0,96.728l-90,45
			V301H0v211h181V406c0-41.353,33.647-75,75-75c41.353,0,75,33.647,75,75v106h181V301H361z M151,451H60V331h91V451z M256,301
			c-41.353,0-75-33.647-75-75c0-41.353,33.647-75,75-75c41.353,0,75,33.647,75,75C331,267.353,297.353,301,256,301z M451,451h-90
			V331h90V451z"/>
	</g>
</g>
<g>
	<g>
		<rect x="391" y="361" width="30" height="60"/>
	</g>
</g>
<g>
	<g>
		<path d="M271,183.763V211h27.237C293.705,198.292,283.708,188.295,271,183.763z"/>
	</g>
</g>
<g>
</g>
<g>
</g>
<g>
</g>
<g>
</g>
<g>
</g>
<g>
</g>
<g>
</g>
<g>
</g>
<g>
</g>
<g>
</g>
<g>
</g>
<g>
</g>
<g>
</g>
<g>
</g>
<g>
</g>
</svg>
